<svg width="187" height="146" viewBox="0 0 187 146" fill="none" xmlns="http://www.w3.org/2000/svg">
<path opacity="0.2" d="M74.7549 118.515C74.7773 124.128 73.6143 129.679 71.3457 134.788C69.077 139.898 65.7562 144.445 61.6109 148.118C52.7157 156.428 41.0256 160.892 28.9876 160.578C13.7056 160.578 1.6394 155.133 -7.21086 144.243C-16.0519 133.414 -20.7755 119.681 -20.5125 105.571C-20.5125 71.7878 -11.4607 46.3652 6.64288 29.3033C24.7465 12.2413 44.7867 2.79533 66.7634 0.965336L66.7634 38.0227C55.6886 39.2301 45.204 43.7405 36.6111 50.994C32.1888 54.3811 28.5458 58.7197 25.9388 63.7042C23.3317 68.6887 21.824 74.1977 21.5218 79.8433C25.1717 78.0233 29.1867 77.1017 33.2463 77.1521C46.3727 77.1521 56.5724 80.9646 63.8454 88.5896C67.5193 92.5823 70.3768 97.2863 72.2503 102.425C74.1237 107.564 74.9752 113.035 74.7549 118.515ZM186.479 118.515C186.506 124.129 185.346 129.682 183.077 134.792C180.808 139.902 177.484 144.448 173.335 148.118C164.439 156.428 152.749 160.892 140.711 160.578C125.464 160.578 113.495 155.133 104.802 144.243C96.0673 133.363 91.4071 119.652 91.658 105.571C91.658 71.7878 100.613 46.3652 118.524 29.3033C136.435 12.2413 156.449 2.75942 178.566 0.857666V37.915C167.515 39.1692 157.068 43.7169 148.519 50.994C144.063 54.361 140.387 58.6916 137.752 63.6778C135.117 68.664 133.587 74.1833 133.272 79.8433C136.912 78.0226 140.919 77.1009 144.97 77.1521C158.079 77.1521 168.279 80.9646 175.569 88.5896C179.243 92.581 182.099 97.2854 183.968 102.425C185.837 107.565 186.682 113.036 186.452 118.515H186.479Z" fill="#F1F1F1" fill-opacity="0.1"/>
</svg>
