<svg width="16" height="16" viewBox="0 0 16 16" fill="none" xmlns="http://www.w3.org/2000/svg">
<g clip-path="url(#clip0_289_151)">
<path d="M12.3361 1.46885H11.7131V0.845901C11.7131 0.680684 11.6475 0.522234 11.5307 0.405408C11.4138 0.288582 11.2554 0.22295 11.0902 0.22295C10.9249 0.22295 10.7665 0.288582 10.6497 0.405408C10.5328 0.522234 10.4672 0.680684 10.4672 0.845901V1.46885H5.48361V0.845901C5.48361 0.680684 5.41797 0.522234 5.30115 0.405408C5.18432 0.288582 5.02587 0.22295 4.86066 0.22295C4.69544 0.22295 4.53699 0.288582 4.42016 0.405408C4.30334 0.522234 4.23771 0.680684 4.23771 0.845901V1.46885H3.61475C2.78897 1.46984 1.9973 1.79832 1.41338 2.38223C0.829467 2.96615 0.500989 3.75783 0.5 4.58361L0.5 12.059C0.500989 12.8848 0.829467 13.6765 1.41338 14.2604C1.9973 14.8443 2.78897 15.1728 3.61475 15.1738H12.3361C13.1618 15.1728 13.9535 14.8443 14.5374 14.2604C15.1214 13.6765 15.4498 12.8848 15.4508 12.059V4.58361C15.4498 3.75783 15.1214 2.96615 14.5374 2.38223C13.9535 1.79832 13.1618 1.46984 12.3361 1.46885ZM1.7459 4.58361C1.7459 4.08796 1.9428 3.61261 2.29328 3.26213C2.64375 2.91165 3.1191 2.71475 3.61475 2.71475H12.3361C12.8317 2.71475 13.3071 2.91165 13.6575 3.26213C14.008 3.61261 14.2049 4.08796 14.2049 4.58361V5.20656H1.7459V4.58361ZM12.3361 13.9279H3.61475C3.1191 13.9279 2.64375 13.731 2.29328 13.3805C1.9428 13.03 1.7459 12.5547 1.7459 12.059V6.45246H14.2049V12.059C14.2049 12.5547 14.008 13.03 13.6575 13.3805C13.3071 13.731 12.8317 13.9279 12.3361 13.9279Z" fill="#F7B103"/>
<path d="M7.9755 10.5016C8.49157 10.5016 8.90993 10.0833 8.90993 9.56719C8.90993 9.05112 8.49157 8.63277 7.9755 8.63277C7.45943 8.63277 7.04108 9.05112 7.04108 9.56719C7.04108 10.0833 7.45943 10.5016 7.9755 10.5016Z" fill="#F7B103"/>
<path d="M4.86067 10.5016C5.37673 10.5016 5.79509 10.0833 5.79509 9.56719C5.79509 9.05112 5.37673 8.63277 4.86067 8.63277C4.3446 8.63277 3.92624 9.05112 3.92624 9.56719C3.92624 10.0833 4.3446 10.5016 4.86067 10.5016Z" fill="#F7B103"/>
<path d="M11.0901 10.5016C11.6062 10.5016 12.0246 10.0833 12.0246 9.56719C12.0246 9.05112 11.6062 8.63277 11.0901 8.63277C10.5741 8.63277 10.1557 9.05112 10.1557 9.56719C10.1557 10.0833 10.5741 10.5016 11.0901 10.5016Z" fill="#F7B103"/>
</g>
<defs>
<clipPath id="clip0_289_151">
<rect width="14.9508" height="14.9508" fill="white" transform="translate(0.5 0.22295)"/>
</clipPath>
</defs>
</svg>
