<svg width="15" height="15" viewBox="0 0 15 15" fill="none" xmlns="http://www.w3.org/2000/svg">
<path d="M7.95082 8.57336C7.51818 8.57336 7.09524 8.44507 6.73551 8.2047C6.37578 7.96434 6.0954 7.6227 5.92984 7.22298C5.76427 6.82327 5.72095 6.38344 5.80535 5.9591C5.88976 5.53477 6.0981 5.14499 6.40403 4.83907C6.70995 4.53314 7.09973 4.3248 7.52406 4.24039C7.9484 4.15599 8.38823 4.19931 8.78794 4.36487C9.18766 4.53044 9.5293 4.81082 9.76966 5.17055C10.01 5.53028 10.1383 5.95322 10.1383 6.38586C10.1376 6.96581 9.90694 7.52181 9.49685 7.93189C9.08677 8.34198 8.53077 8.57267 7.95082 8.57336ZM7.95082 5.07336C7.69123 5.07336 7.43748 5.15034 7.22164 5.29456C7.0058 5.43878 6.83757 5.64376 6.73823 5.88359C6.63889 6.12342 6.6129 6.38732 6.66354 6.64192C6.71418 6.89652 6.83919 7.13038 7.02274 7.31394C7.2063 7.4975 7.44017 7.6225 7.69477 7.67314C7.94937 7.72379 8.21327 7.69779 8.45309 7.59845C8.69292 7.49911 8.89791 7.33089 9.04213 7.11505C9.18635 6.89921 9.26332 6.64545 9.26332 6.38586C9.26297 6.03787 9.12458 5.70423 8.87852 5.45817C8.63245 5.2121 8.29881 5.07371 7.95082 5.07336Z" fill="#F7B103"/>
<path d="M7.95082 13.8234L4.26007 9.47067C4.20879 9.40532 4.15803 9.33954 4.10782 9.27336C3.47737 8.44289 3.13679 7.42852 3.13832 6.38586C3.13832 5.10951 3.64535 3.88543 4.54787 2.98291C5.45039 2.08039 6.67446 1.57336 7.95082 1.57336C9.22717 1.57336 10.4513 2.08039 11.3538 2.98291C12.2563 3.88543 12.7633 5.10951 12.7633 6.38586C12.7648 7.42805 12.4244 8.44196 11.7943 9.27205L11.7938 9.27336C11.7938 9.27336 11.6626 9.44574 11.6429 9.46892L7.95082 13.8234ZM4.80651 8.74617C4.80651 8.74617 4.90844 8.88092 4.93163 8.9098L7.95082 12.4706L10.9739 8.90499C10.9932 8.88092 11.0956 8.7453 11.096 8.74486C11.611 8.06635 11.8893 7.23769 11.8883 6.38586C11.8883 5.34157 11.4735 4.34005 10.7351 3.60163C9.99663 2.8632 8.99511 2.44836 7.95082 2.44836C6.90653 2.44836 5.90501 2.8632 5.16659 3.60163C4.42816 4.34005 4.01332 5.34157 4.01332 6.38586C4.0124 7.23822 4.29103 8.06735 4.80651 8.74617Z" fill="#F7B103"/>
</svg>
